<svg width="619" height="218" viewBox="0 0 619 218" fill="none" xmlns="http://www.w3.org/2000/svg">
<g filter="url(#filter0_d_14407_75558)">
<rect x="12" y="10" width="595" height="194" rx="5" fill="white"/>
<rect x="12.5" y="10.5" width="594" height="193" rx="4.5" stroke="#DEE2E6"/>
<rect x="281.5" y="54" width="56" height="56" rx="28" fill="#F7FAFF"/>
<rect x="285.5" y="58" width="48" height="48" rx="24" fill="#E3F0FF"/>
<rect x="289.5" y="62" width="40" height="40" rx="20" fill="#C6DEFF"/>
<g clip-path="url(#clip0_14407_75558)">
<circle cx="309.5" cy="82.5" r="11.5" fill="white"/>
<path d="M309.5 98C313.743 98 317.813 96.3143 320.814 93.3137C323.814 90.3131 325.5 86.2435 325.5 82C325.5 77.7565 323.814 73.6869 320.814 70.6863C317.813 67.6857 313.743 66 309.5 66C305.257 66 301.187 67.6857 298.186 70.6863C295.186 73.6869 293.5 77.7565 293.5 82C293.5 86.2435 295.186 90.3131 298.186 93.3137C301.187 96.3143 305.257 98 309.5 98ZM300.5 76H318.5C318.765 76 319.02 76.1054 319.207 76.2929C319.395 76.4804 319.5 76.7348 319.5 77C319.5 77.2652 319.395 77.5196 319.207 77.7071C319.02 77.8946 318.765 78 318.5 78H300.5C300.235 78 299.98 77.8946 299.793 77.7071C299.605 77.5196 299.5 77.2652 299.5 77C299.5 76.7348 299.605 76.4804 299.793 76.2929C299.98 76.1054 300.235 76 300.5 76ZM303.5 83C303.5 82.7348 303.605 82.4804 303.793 82.2929C303.98 82.1054 304.235 82 304.5 82H314.5C314.765 82 315.02 82.1054 315.207 82.2929C315.395 82.4804 315.5 82.7348 315.5 83C315.5 83.2652 315.395 83.5196 315.207 83.7071C315.02 83.8946 314.765 84 314.5 84H304.5C304.235 84 303.98 83.8946 303.793 83.7071C303.605 83.5196 303.5 83.2652 303.5 83ZM307.5 89C307.5 88.7348 307.605 88.4804 307.793 88.2929C307.98 88.1054 308.235 88 308.5 88H310.5C310.765 88 311.02 88.1054 311.207 88.2929C311.395 88.4804 311.5 88.7348 311.5 89C311.5 89.2652 311.395 89.5196 311.207 89.7071C311.02 89.8946 310.765 90 310.5 90H308.5C308.235 90 307.98 89.8946 307.793 89.7071C307.605 89.5196 307.5 89.2652 307.5 89Z" fill="#1D4985"/>
</g>
<path d="M237.906 121.625V133H235.562L230.992 125.375V133H228.648V121.625H230.992L235.57 129.258V121.625H237.906ZM243.695 133.156C243.039 133.156 242.451 133.052 241.93 132.844C241.409 132.63 240.966 132.336 240.602 131.961C240.242 131.586 239.966 131.151 239.773 130.656C239.581 130.156 239.484 129.625 239.484 129.062V128.75C239.484 128.109 239.576 127.523 239.758 126.992C239.94 126.461 240.201 126 240.539 125.609C240.883 125.219 241.299 124.919 241.789 124.711C242.279 124.497 242.831 124.391 243.445 124.391C244.044 124.391 244.576 124.49 245.039 124.688C245.503 124.885 245.891 125.167 246.203 125.531C246.521 125.896 246.76 126.333 246.922 126.844C247.083 127.349 247.164 127.911 247.164 128.531V129.469H240.445V127.969H244.953V127.797C244.953 127.484 244.896 127.206 244.781 126.961C244.672 126.711 244.505 126.513 244.281 126.367C244.057 126.221 243.771 126.148 243.422 126.148C243.125 126.148 242.87 126.214 242.656 126.344C242.443 126.474 242.268 126.656 242.133 126.891C242.003 127.125 241.904 127.401 241.836 127.719C241.773 128.031 241.742 128.375 241.742 128.75V129.062C241.742 129.401 241.789 129.714 241.883 130C241.982 130.286 242.12 130.534 242.297 130.742C242.479 130.951 242.698 131.112 242.953 131.227C243.214 131.341 243.508 131.398 243.836 131.398C244.242 131.398 244.62 131.32 244.969 131.164C245.323 131.003 245.628 130.76 245.883 130.438L246.977 131.625C246.799 131.88 246.557 132.125 246.25 132.359C245.948 132.594 245.583 132.786 245.156 132.938C244.729 133.083 244.242 133.156 243.695 133.156ZM250.648 126.352V133H248.398V124.547H250.508L250.648 126.352ZM250.32 128.477H249.711C249.711 127.852 249.792 127.289 249.953 126.789C250.115 126.284 250.341 125.854 250.633 125.5C250.924 125.141 251.271 124.867 251.672 124.68C252.078 124.487 252.531 124.391 253.031 124.391C253.427 124.391 253.789 124.448 254.117 124.562C254.445 124.677 254.727 124.859 254.961 125.109C255.201 125.359 255.383 125.69 255.508 126.102C255.638 126.513 255.703 127.016 255.703 127.609V133H253.438V127.602C253.438 127.227 253.385 126.935 253.281 126.727C253.177 126.518 253.023 126.372 252.82 126.289C252.622 126.201 252.378 126.156 252.086 126.156C251.784 126.156 251.521 126.216 251.297 126.336C251.078 126.456 250.896 126.622 250.75 126.836C250.609 127.044 250.503 127.289 250.43 127.57C250.357 127.852 250.32 128.154 250.32 128.477ZM259.609 121V133H257.359V121H259.609ZM259.289 128.477H258.672C258.677 127.888 258.755 127.346 258.906 126.852C259.057 126.352 259.273 125.919 259.555 125.555C259.836 125.185 260.172 124.898 260.562 124.695C260.958 124.492 261.396 124.391 261.875 124.391C262.292 124.391 262.669 124.451 263.008 124.57C263.352 124.685 263.646 124.872 263.891 125.133C264.141 125.388 264.333 125.724 264.469 126.141C264.604 126.557 264.672 127.062 264.672 127.656V133H262.406V127.641C262.406 127.266 262.352 126.971 262.242 126.758C262.138 126.539 261.984 126.385 261.781 126.297C261.583 126.203 261.339 126.156 261.047 126.156C260.724 126.156 260.448 126.216 260.219 126.336C259.995 126.456 259.815 126.622 259.68 126.836C259.544 127.044 259.445 127.289 259.383 127.57C259.32 127.852 259.289 128.154 259.289 128.477ZM271.383 130.977V124.547H273.633V133H271.516L271.383 130.977ZM271.633 129.242L272.297 129.227C272.297 129.789 272.232 130.312 272.102 130.797C271.971 131.276 271.776 131.693 271.516 132.047C271.255 132.396 270.927 132.669 270.531 132.867C270.135 133.06 269.669 133.156 269.133 133.156C268.721 133.156 268.341 133.099 267.992 132.984C267.648 132.865 267.352 132.68 267.102 132.43C266.857 132.174 266.664 131.849 266.523 131.453C266.388 131.052 266.32 130.57 266.32 130.008V124.547H268.57V130.023C268.57 130.273 268.599 130.484 268.656 130.656C268.719 130.828 268.805 130.969 268.914 131.078C269.023 131.188 269.151 131.266 269.297 131.312C269.448 131.359 269.615 131.383 269.797 131.383C270.26 131.383 270.625 131.289 270.891 131.102C271.161 130.914 271.352 130.659 271.461 130.336C271.576 130.008 271.633 129.643 271.633 129.242ZM277.602 126.297V133H275.344V124.547H277.461L277.602 126.297ZM277.289 128.477H276.664C276.664 127.888 276.734 127.346 276.875 126.852C277.021 126.352 277.232 125.919 277.508 125.555C277.789 125.185 278.135 124.898 278.547 124.695C278.958 124.492 279.435 124.391 279.977 124.391C280.352 124.391 280.695 124.448 281.008 124.562C281.32 124.672 281.589 124.846 281.812 125.086C282.042 125.32 282.219 125.628 282.344 126.008C282.469 126.383 282.531 126.833 282.531 127.359V133H280.281V127.609C280.281 127.224 280.229 126.927 280.125 126.719C280.021 126.51 279.872 126.365 279.68 126.281C279.492 126.198 279.266 126.156 279 126.156C278.708 126.156 278.453 126.216 278.234 126.336C278.021 126.456 277.844 126.622 277.703 126.836C277.562 127.044 277.458 127.289 277.391 127.57C277.323 127.852 277.289 128.154 277.289 128.477ZM282.32 128.219L281.516 128.32C281.516 127.768 281.583 127.255 281.719 126.781C281.859 126.307 282.065 125.891 282.336 125.531C282.612 125.172 282.953 124.893 283.359 124.695C283.766 124.492 284.234 124.391 284.766 124.391C285.172 124.391 285.542 124.451 285.875 124.57C286.208 124.685 286.492 124.87 286.727 125.125C286.966 125.375 287.148 125.703 287.273 126.109C287.404 126.516 287.469 127.013 287.469 127.602V133H285.211V127.602C285.211 127.211 285.159 126.914 285.055 126.711C284.956 126.503 284.81 126.359 284.617 126.281C284.43 126.198 284.206 126.156 283.945 126.156C283.674 126.156 283.438 126.211 283.234 126.32C283.031 126.424 282.862 126.57 282.727 126.758C282.591 126.945 282.49 127.164 282.422 127.414C282.354 127.659 282.32 127.927 282.32 128.219ZM296.008 133H293.75V124.164C293.75 123.445 293.896 122.839 294.188 122.344C294.484 121.849 294.906 121.474 295.453 121.219C296.005 120.964 296.672 120.836 297.453 120.836C297.896 120.836 298.326 120.88 298.742 120.969C299.159 121.052 299.589 121.161 300.031 121.297L299.703 123.102C299.417 123.013 299.109 122.93 298.781 122.852C298.453 122.773 298.057 122.734 297.594 122.734C297.073 122.734 296.677 122.857 296.406 123.102C296.141 123.341 296.008 123.695 296.008 124.164V133ZM297.688 124.547V126.141H292.492V124.547H297.688ZM301.078 124.547V133H298.82V124.547H301.078ZM305.336 121V133H303.078V121H305.336ZM311.336 124.547V126.141H306.414V124.547H311.336ZM307.633 122.461H309.883V130.453C309.883 130.698 309.914 130.885 309.977 131.016C310.044 131.146 310.143 131.237 310.273 131.289C310.404 131.336 310.568 131.359 310.766 131.359C310.906 131.359 311.031 131.354 311.141 131.344C311.255 131.328 311.352 131.312 311.43 131.297L311.438 132.953C311.245 133.016 311.036 133.065 310.812 133.102C310.589 133.138 310.341 133.156 310.07 133.156C309.576 133.156 309.143 133.076 308.773 132.914C308.409 132.747 308.128 132.482 307.93 132.117C307.732 131.753 307.633 131.273 307.633 130.68V122.461ZM314.867 126.391V133H312.617V124.547H314.734L314.867 126.391ZM317.414 124.492L317.375 126.578C317.266 126.562 317.133 126.549 316.977 126.539C316.826 126.523 316.688 126.516 316.562 126.516C316.245 126.516 315.969 126.557 315.734 126.641C315.505 126.719 315.312 126.836 315.156 126.992C315.005 127.148 314.891 127.339 314.812 127.562C314.74 127.786 314.698 128.042 314.688 128.328L314.234 128.188C314.234 127.641 314.289 127.138 314.398 126.68C314.508 126.216 314.667 125.812 314.875 125.469C315.089 125.125 315.349 124.859 315.656 124.672C315.964 124.484 316.315 124.391 316.711 124.391C316.836 124.391 316.964 124.401 317.094 124.422C317.224 124.438 317.331 124.461 317.414 124.492ZM317.883 128.859V128.695C317.883 128.076 317.971 127.505 318.148 126.984C318.326 126.458 318.583 126.003 318.922 125.617C319.26 125.232 319.677 124.932 320.172 124.719C320.667 124.5 321.234 124.391 321.875 124.391C322.516 124.391 323.086 124.5 323.586 124.719C324.086 124.932 324.505 125.232 324.844 125.617C325.188 126.003 325.448 126.458 325.625 126.984C325.802 127.505 325.891 128.076 325.891 128.695V128.859C325.891 129.474 325.802 130.044 325.625 130.57C325.448 131.091 325.188 131.547 324.844 131.938C324.505 132.323 324.089 132.622 323.594 132.836C323.099 133.049 322.531 133.156 321.891 133.156C321.25 133.156 320.68 133.049 320.18 132.836C319.685 132.622 319.266 132.323 318.922 131.938C318.583 131.547 318.326 131.091 318.148 130.57C317.971 130.044 317.883 129.474 317.883 128.859ZM320.133 128.695V128.859C320.133 129.214 320.164 129.544 320.227 129.852C320.289 130.159 320.388 130.43 320.523 130.664C320.664 130.893 320.846 131.073 321.07 131.203C321.294 131.333 321.568 131.398 321.891 131.398C322.203 131.398 322.471 131.333 322.695 131.203C322.919 131.073 323.099 130.893 323.234 130.664C323.37 130.43 323.469 130.159 323.531 129.852C323.599 129.544 323.633 129.214 323.633 128.859V128.695C323.633 128.352 323.599 128.029 323.531 127.727C323.469 127.419 323.367 127.148 323.227 126.914C323.091 126.674 322.911 126.487 322.688 126.352C322.464 126.216 322.193 126.148 321.875 126.148C321.557 126.148 321.286 126.216 321.062 126.352C320.844 126.487 320.664 126.674 320.523 126.914C320.388 127.148 320.289 127.419 320.227 127.727C320.164 128.029 320.133 128.352 320.133 128.695ZM335.82 131.094V127.328C335.82 127.057 335.776 126.826 335.688 126.633C335.599 126.435 335.461 126.281 335.273 126.172C335.091 126.062 334.854 126.008 334.562 126.008C334.312 126.008 334.096 126.052 333.914 126.141C333.732 126.224 333.591 126.346 333.492 126.508C333.393 126.664 333.344 126.849 333.344 127.062H331.094C331.094 126.703 331.177 126.362 331.344 126.039C331.51 125.716 331.753 125.432 332.07 125.188C332.388 124.938 332.766 124.742 333.203 124.602C333.646 124.461 334.141 124.391 334.688 124.391C335.344 124.391 335.927 124.5 336.438 124.719C336.948 124.938 337.349 125.266 337.641 125.703C337.938 126.141 338.086 126.688 338.086 127.344V130.961C338.086 131.424 338.115 131.805 338.172 132.102C338.229 132.393 338.312 132.648 338.422 132.867V133H336.148C336.039 132.771 335.956 132.484 335.898 132.141C335.846 131.792 335.82 131.443 335.82 131.094ZM336.117 127.852L336.133 129.125H334.875C334.578 129.125 334.32 129.159 334.102 129.227C333.883 129.294 333.703 129.391 333.562 129.516C333.422 129.635 333.318 129.776 333.25 129.938C333.188 130.099 333.156 130.276 333.156 130.469C333.156 130.661 333.201 130.836 333.289 130.992C333.378 131.143 333.505 131.263 333.672 131.352C333.839 131.435 334.034 131.477 334.258 131.477C334.596 131.477 334.891 131.409 335.141 131.273C335.391 131.138 335.583 130.971 335.719 130.773C335.859 130.576 335.932 130.388 335.938 130.211L336.531 131.164C336.448 131.378 336.333 131.599 336.188 131.828C336.047 132.057 335.867 132.273 335.648 132.477C335.43 132.674 335.167 132.839 334.859 132.969C334.552 133.094 334.188 133.156 333.766 133.156C333.229 133.156 332.742 133.049 332.305 132.836C331.872 132.617 331.529 132.318 331.273 131.938C331.023 131.552 330.898 131.115 330.898 130.625C330.898 130.182 330.982 129.789 331.148 129.445C331.315 129.102 331.56 128.812 331.883 128.578C332.211 128.339 332.62 128.159 333.109 128.039C333.599 127.914 334.167 127.852 334.812 127.852H336.117ZM342.07 126.172V136.25H339.82V124.547H341.906L342.07 126.172ZM347.422 128.68V128.844C347.422 129.458 347.349 130.029 347.203 130.555C347.062 131.081 346.854 131.539 346.578 131.93C346.302 132.315 345.958 132.617 345.547 132.836C345.141 133.049 344.672 133.156 344.141 133.156C343.625 133.156 343.177 133.052 342.797 132.844C342.417 132.635 342.096 132.344 341.836 131.969C341.581 131.589 341.375 131.148 341.219 130.648C341.062 130.148 340.943 129.612 340.859 129.039V128.609C340.943 127.995 341.062 127.432 341.219 126.922C341.375 126.406 341.581 125.961 341.836 125.586C342.096 125.206 342.414 124.911 342.789 124.703C343.169 124.495 343.615 124.391 344.125 124.391C344.661 124.391 345.133 124.492 345.539 124.695C345.951 124.898 346.294 125.19 346.57 125.57C346.852 125.951 347.062 126.404 347.203 126.93C347.349 127.456 347.422 128.039 347.422 128.68ZM345.164 128.844V128.68C345.164 128.32 345.133 127.99 345.07 127.688C345.013 127.38 344.919 127.112 344.789 126.883C344.664 126.654 344.497 126.477 344.289 126.352C344.086 126.221 343.839 126.156 343.547 126.156C343.24 126.156 342.977 126.206 342.758 126.305C342.544 126.404 342.37 126.547 342.234 126.734C342.099 126.922 341.997 127.146 341.93 127.406C341.862 127.667 341.82 127.961 341.805 128.289V129.375C341.831 129.76 341.904 130.107 342.023 130.414C342.143 130.716 342.328 130.956 342.578 131.133C342.828 131.31 343.156 131.398 343.562 131.398C343.859 131.398 344.109 131.333 344.312 131.203C344.516 131.068 344.68 130.883 344.805 130.648C344.935 130.414 345.026 130.143 345.078 129.836C345.135 129.529 345.164 129.198 345.164 128.844ZM351.195 121V133H348.938V121H351.195ZM355.43 124.547V133H353.172V124.547H355.43ZM353.031 122.344C353.031 122.016 353.146 121.745 353.375 121.531C353.604 121.318 353.911 121.211 354.297 121.211C354.677 121.211 354.982 121.318 355.211 121.531C355.445 121.745 355.562 122.016 355.562 122.344C355.562 122.672 355.445 122.943 355.211 123.156C354.982 123.37 354.677 123.477 354.297 123.477C353.911 123.477 353.604 123.37 353.375 123.156C353.146 122.943 353.031 122.672 353.031 122.344ZM360.781 131.398C361.057 131.398 361.302 131.346 361.516 131.242C361.729 131.133 361.896 130.982 362.016 130.789C362.141 130.591 362.206 130.359 362.211 130.094H364.328C364.323 130.688 364.164 131.216 363.852 131.68C363.539 132.138 363.12 132.5 362.594 132.766C362.068 133.026 361.479 133.156 360.828 133.156C360.172 133.156 359.599 133.047 359.109 132.828C358.625 132.609 358.221 132.307 357.898 131.922C357.576 131.531 357.333 131.078 357.172 130.562C357.01 130.042 356.93 129.484 356.93 128.891V128.664C356.93 128.065 357.01 127.508 357.172 126.992C357.333 126.471 357.576 126.018 357.898 125.633C358.221 125.242 358.625 124.938 359.109 124.719C359.594 124.5 360.161 124.391 360.812 124.391C361.505 124.391 362.112 124.523 362.633 124.789C363.159 125.055 363.57 125.435 363.867 125.93C364.169 126.419 364.323 127 364.328 127.672H362.211C362.206 127.391 362.146 127.135 362.031 126.906C361.922 126.677 361.76 126.495 361.547 126.359C361.339 126.219 361.081 126.148 360.773 126.148C360.445 126.148 360.177 126.219 359.969 126.359C359.76 126.495 359.599 126.682 359.484 126.922C359.37 127.156 359.289 127.424 359.242 127.727C359.201 128.023 359.18 128.336 359.18 128.664V128.891C359.18 129.219 359.201 129.534 359.242 129.836C359.284 130.138 359.362 130.406 359.477 130.641C359.596 130.875 359.76 131.06 359.969 131.195C360.177 131.331 360.448 131.398 360.781 131.398ZM370.195 131.094V127.328C370.195 127.057 370.151 126.826 370.062 126.633C369.974 126.435 369.836 126.281 369.648 126.172C369.466 126.062 369.229 126.008 368.938 126.008C368.688 126.008 368.471 126.052 368.289 126.141C368.107 126.224 367.966 126.346 367.867 126.508C367.768 126.664 367.719 126.849 367.719 127.062H365.469C365.469 126.703 365.552 126.362 365.719 126.039C365.885 125.716 366.128 125.432 366.445 125.188C366.763 124.938 367.141 124.742 367.578 124.602C368.021 124.461 368.516 124.391 369.062 124.391C369.719 124.391 370.302 124.5 370.812 124.719C371.323 124.938 371.724 125.266 372.016 125.703C372.312 126.141 372.461 126.688 372.461 127.344V130.961C372.461 131.424 372.49 131.805 372.547 132.102C372.604 132.393 372.688 132.648 372.797 132.867V133H370.523C370.414 132.771 370.331 132.484 370.273 132.141C370.221 131.792 370.195 131.443 370.195 131.094ZM370.492 127.852L370.508 129.125H369.25C368.953 129.125 368.695 129.159 368.477 129.227C368.258 129.294 368.078 129.391 367.938 129.516C367.797 129.635 367.693 129.776 367.625 129.938C367.562 130.099 367.531 130.276 367.531 130.469C367.531 130.661 367.576 130.836 367.664 130.992C367.753 131.143 367.88 131.263 368.047 131.352C368.214 131.435 368.409 131.477 368.633 131.477C368.971 131.477 369.266 131.409 369.516 131.273C369.766 131.138 369.958 130.971 370.094 130.773C370.234 130.576 370.307 130.388 370.312 130.211L370.906 131.164C370.823 131.378 370.708 131.599 370.562 131.828C370.422 132.057 370.242 132.273 370.023 132.477C369.805 132.674 369.542 132.839 369.234 132.969C368.927 133.094 368.562 133.156 368.141 133.156C367.604 133.156 367.117 133.049 366.68 132.836C366.247 132.617 365.904 132.318 365.648 131.938C365.398 131.552 365.273 131.115 365.273 130.625C365.273 130.182 365.357 129.789 365.523 129.445C365.69 129.102 365.935 128.812 366.258 128.578C366.586 128.339 366.995 128.159 367.484 128.039C367.974 127.914 368.542 127.852 369.188 127.852H370.492ZM379.188 131.156V121H381.453V133H379.414L379.188 131.156ZM373.844 128.875V128.711C373.844 128.065 373.917 127.479 374.062 126.953C374.208 126.422 374.422 125.966 374.703 125.586C374.984 125.206 375.331 124.911 375.742 124.703C376.154 124.495 376.622 124.391 377.148 124.391C377.643 124.391 378.076 124.495 378.445 124.703C378.82 124.911 379.138 125.208 379.398 125.594C379.664 125.974 379.878 126.424 380.039 126.945C380.201 127.461 380.318 128.026 380.391 128.641V129C380.318 129.589 380.201 130.135 380.039 130.641C379.878 131.146 379.664 131.589 379.398 131.969C379.138 132.344 378.82 132.635 378.445 132.844C378.07 133.052 377.633 133.156 377.133 133.156C376.607 133.156 376.138 133.049 375.727 132.836C375.32 132.622 374.977 132.323 374.695 131.938C374.419 131.552 374.208 131.099 374.062 130.578C373.917 130.057 373.844 129.49 373.844 128.875ZM376.094 128.711V128.875C376.094 129.224 376.12 129.549 376.172 129.852C376.229 130.154 376.32 130.422 376.445 130.656C376.576 130.885 376.742 131.065 376.945 131.195C377.154 131.32 377.406 131.383 377.703 131.383C378.089 131.383 378.406 131.297 378.656 131.125C378.906 130.948 379.096 130.706 379.227 130.398C379.362 130.091 379.44 129.737 379.461 129.336V128.312C379.445 127.984 379.398 127.69 379.32 127.43C379.247 127.164 379.138 126.938 378.992 126.75C378.852 126.562 378.674 126.417 378.461 126.312C378.253 126.208 378.005 126.156 377.719 126.156C377.427 126.156 377.177 126.224 376.969 126.359C376.76 126.49 376.591 126.669 376.461 126.898C376.336 127.128 376.242 127.398 376.18 127.711C376.122 128.018 376.094 128.352 376.094 128.711ZM382.852 128.859V128.695C382.852 128.076 382.94 127.505 383.117 126.984C383.294 126.458 383.552 126.003 383.891 125.617C384.229 125.232 384.646 124.932 385.141 124.719C385.635 124.5 386.203 124.391 386.844 124.391C387.484 124.391 388.055 124.5 388.555 124.719C389.055 124.932 389.474 125.232 389.812 125.617C390.156 126.003 390.417 126.458 390.594 126.984C390.771 127.505 390.859 128.076 390.859 128.695V128.859C390.859 129.474 390.771 130.044 390.594 130.57C390.417 131.091 390.156 131.547 389.812 131.938C389.474 132.323 389.057 132.622 388.562 132.836C388.068 133.049 387.5 133.156 386.859 133.156C386.219 133.156 385.648 133.049 385.148 132.836C384.654 132.622 384.234 132.323 383.891 131.938C383.552 131.547 383.294 131.091 383.117 130.57C382.94 130.044 382.852 129.474 382.852 128.859ZM385.102 128.695V128.859C385.102 129.214 385.133 129.544 385.195 129.852C385.258 130.159 385.357 130.43 385.492 130.664C385.633 130.893 385.815 131.073 386.039 131.203C386.263 131.333 386.536 131.398 386.859 131.398C387.172 131.398 387.44 131.333 387.664 131.203C387.888 131.073 388.068 130.893 388.203 130.664C388.339 130.43 388.438 130.159 388.5 129.852C388.568 129.544 388.602 129.214 388.602 128.859V128.695C388.602 128.352 388.568 128.029 388.5 127.727C388.438 127.419 388.336 127.148 388.195 126.914C388.06 126.674 387.88 126.487 387.656 126.352C387.432 126.216 387.161 126.148 386.844 126.148C386.526 126.148 386.255 126.216 386.031 126.352C385.812 126.487 385.633 126.674 385.492 126.914C385.357 127.148 385.258 127.419 385.195 127.727C385.133 128.029 385.102 128.352 385.102 128.695Z" fill="#1D4985"/>
<path d="M130.843 144.047V154H128.963V144.047H130.843ZM134.855 148.347V149.83H130.351V148.347H134.855ZM135.382 144.047V145.53H130.351V144.047H135.382ZM140.365 152.428V149.017C140.365 148.766 140.322 148.549 140.235 148.367C140.149 148.185 140.017 148.044 139.839 147.943C139.661 147.843 139.436 147.793 139.162 147.793C138.921 147.793 138.709 147.834 138.526 147.916C138.349 147.998 138.212 148.114 138.116 148.265C138.021 148.41 137.973 148.579 137.973 148.771H136.161C136.161 148.465 136.234 148.176 136.38 147.902C136.526 147.624 136.733 147.378 137.002 147.164C137.275 146.945 137.601 146.774 137.979 146.651C138.362 146.528 138.791 146.467 139.265 146.467C139.825 146.467 140.324 146.562 140.762 146.754C141.204 146.941 141.55 147.223 141.801 147.602C142.056 147.98 142.184 148.456 142.184 149.03V152.257C142.184 152.626 142.206 152.943 142.252 153.207C142.302 153.467 142.375 153.692 142.471 153.884V154H140.632C140.545 153.813 140.479 153.576 140.434 153.289C140.388 152.997 140.365 152.71 140.365 152.428ZM140.618 149.495L140.632 150.568H139.49C139.208 150.568 138.959 150.598 138.745 150.657C138.531 150.712 138.355 150.794 138.219 150.903C138.082 151.008 137.979 151.136 137.911 151.286C137.843 151.432 137.809 151.598 137.809 151.785C137.809 151.967 137.85 152.132 137.932 152.277C138.018 152.423 138.141 152.539 138.301 152.626C138.465 152.708 138.656 152.749 138.875 152.749C139.194 152.749 139.472 152.685 139.709 152.558C139.946 152.425 140.131 152.266 140.263 152.079C140.395 151.892 140.465 151.715 140.475 151.546L140.994 152.325C140.93 152.512 140.835 152.71 140.707 152.92C140.579 153.13 140.415 153.326 140.215 153.508C140.014 153.69 139.773 153.84 139.49 153.959C139.208 154.077 138.88 154.137 138.506 154.137C138.027 154.137 137.599 154.041 137.221 153.85C136.842 153.658 136.544 153.396 136.325 153.063C136.106 152.731 135.997 152.353 135.997 151.929C135.997 151.537 136.07 151.19 136.216 150.89C136.362 150.589 136.578 150.336 136.865 150.131C137.152 149.921 137.508 149.764 137.932 149.659C138.36 149.55 138.85 149.495 139.401 149.495H140.618ZM146.846 152.715C147.101 152.715 147.329 152.665 147.529 152.564C147.73 152.464 147.889 152.323 148.008 152.141C148.131 151.958 148.197 151.746 148.206 151.505H149.908C149.899 152.006 149.758 152.455 149.484 152.852C149.211 153.248 148.846 153.562 148.391 153.795C147.939 154.023 147.434 154.137 146.873 154.137C146.303 154.137 145.807 154.041 145.383 153.85C144.959 153.658 144.606 153.392 144.323 153.05C144.045 152.708 143.836 152.312 143.694 151.86C143.558 151.409 143.489 150.926 143.489 150.411V150.192C143.489 149.677 143.558 149.194 143.694 148.743C143.836 148.292 144.045 147.896 144.323 147.554C144.606 147.212 144.959 146.945 145.383 146.754C145.807 146.562 146.301 146.467 146.866 146.467C147.463 146.467 147.987 146.583 148.438 146.815C148.894 147.048 149.25 147.376 149.505 147.8C149.765 148.224 149.899 148.723 149.908 149.297H148.206C148.197 149.033 148.138 148.796 148.028 148.586C147.919 148.376 147.764 148.208 147.563 148.08C147.363 147.952 147.119 147.889 146.832 147.889C146.527 147.889 146.271 147.952 146.066 148.08C145.866 148.208 145.709 148.383 145.595 148.606C145.485 148.825 145.408 149.071 145.362 149.345C145.321 149.614 145.301 149.896 145.301 150.192V150.411C145.301 150.712 145.321 150.999 145.362 151.272C145.408 151.546 145.485 151.792 145.595 152.011C145.709 152.225 145.866 152.396 146.066 152.523C146.271 152.651 146.531 152.715 146.846 152.715ZM146.114 154H147.461L147.386 154.39C147.646 154.435 147.882 154.545 148.097 154.718C148.311 154.891 148.418 155.176 148.418 155.572C148.418 155.809 148.368 156.023 148.268 156.215C148.172 156.406 148.026 156.57 147.83 156.707C147.634 156.848 147.39 156.955 147.099 157.028C146.812 157.101 146.477 157.138 146.094 157.138L146.046 156.126C146.21 156.126 146.356 156.105 146.483 156.064C146.616 156.023 146.718 155.957 146.791 155.866C146.868 155.78 146.907 155.668 146.907 155.531C146.907 155.395 146.873 155.287 146.805 155.21C146.736 155.137 146.627 155.08 146.477 155.039C146.331 155.003 146.139 154.978 145.902 154.964L146.114 154ZM155.186 152.428V149.017C155.186 148.766 155.142 148.549 155.056 148.367C154.969 148.185 154.837 148.044 154.659 147.943C154.481 147.843 154.256 147.793 153.982 147.793C153.741 147.793 153.529 147.834 153.347 147.916C153.169 147.998 153.032 148.114 152.937 148.265C152.841 148.41 152.793 148.579 152.793 148.771H150.981C150.981 148.465 151.054 148.176 151.2 147.902C151.346 147.624 151.553 147.378 151.822 147.164C152.096 146.945 152.422 146.774 152.8 146.651C153.183 146.528 153.611 146.467 154.085 146.467C154.646 146.467 155.145 146.562 155.582 146.754C156.024 146.941 156.37 147.223 156.621 147.602C156.876 147.98 157.004 148.456 157.004 149.03V152.257C157.004 152.626 157.027 152.943 157.072 153.207C157.122 153.467 157.195 153.692 157.291 153.884V154H155.452C155.366 153.813 155.299 153.576 155.254 153.289C155.208 152.997 155.186 152.71 155.186 152.428ZM155.438 149.495L155.452 150.568H154.311C154.028 150.568 153.78 150.598 153.565 150.657C153.351 150.712 153.176 150.794 153.039 150.903C152.902 151.008 152.8 151.136 152.731 151.286C152.663 151.432 152.629 151.598 152.629 151.785C152.629 151.967 152.67 152.132 152.752 152.277C152.839 152.423 152.962 152.539 153.121 152.626C153.285 152.708 153.477 152.749 153.695 152.749C154.014 152.749 154.292 152.685 154.529 152.558C154.766 152.425 154.951 152.266 155.083 152.079C155.215 151.892 155.286 151.715 155.295 151.546L155.814 152.325C155.751 152.512 155.655 152.71 155.527 152.92C155.4 153.13 155.236 153.326 155.035 153.508C154.835 153.69 154.593 153.84 154.311 153.959C154.028 154.077 153.7 154.137 153.326 154.137C152.848 154.137 152.419 154.041 152.041 153.85C151.663 153.658 151.364 153.396 151.146 153.063C150.927 152.731 150.817 152.353 150.817 151.929C150.817 151.537 150.89 151.19 151.036 150.89C151.182 150.589 151.398 150.336 151.686 150.131C151.973 149.921 152.328 149.764 152.752 149.659C153.18 149.55 153.67 149.495 154.222 149.495H155.438ZM166.52 152.243V146.604H168.338V154H166.629L166.52 152.243ZM166.752 150.712L167.312 150.698C167.312 151.195 167.258 151.653 167.148 152.072C167.039 152.492 166.868 152.856 166.636 153.166C166.408 153.471 166.118 153.711 165.768 153.884C165.417 154.052 165.002 154.137 164.523 154.137C164.159 154.137 163.826 154.087 163.525 153.986C163.225 153.882 162.965 153.72 162.746 153.501C162.532 153.278 162.366 152.993 162.247 152.646C162.129 152.296 162.069 151.874 162.069 151.382V146.604H163.874V151.396C163.874 151.642 163.901 151.847 163.956 152.011C164.015 152.175 164.095 152.309 164.195 152.414C164.3 152.514 164.421 152.587 164.558 152.633C164.699 152.674 164.849 152.694 165.009 152.694C165.446 152.694 165.79 152.608 166.041 152.435C166.296 152.257 166.479 152.02 166.588 151.724C166.697 151.423 166.752 151.086 166.752 150.712ZM171.735 148.121V154H169.931V146.604H171.633L171.735 148.121ZM171.469 150.035H170.915C170.915 149.52 170.977 149.046 171.1 148.613C171.227 148.18 171.414 147.804 171.66 147.485C171.906 147.162 172.209 146.911 172.569 146.733C172.934 146.556 173.355 146.467 173.834 146.467C174.167 146.467 174.472 146.517 174.75 146.617C175.028 146.713 175.267 146.866 175.468 147.075C175.673 147.28 175.83 147.549 175.939 147.882C176.049 148.21 176.104 148.604 176.104 149.064V154H174.299V149.249C174.299 148.903 174.249 148.632 174.148 148.436C174.053 148.24 173.914 148.103 173.731 148.025C173.549 147.943 173.33 147.902 173.075 147.902C172.793 147.902 172.549 147.959 172.344 148.073C172.143 148.183 171.977 148.335 171.845 148.531C171.717 148.727 171.621 148.953 171.558 149.208C171.498 149.463 171.469 149.739 171.469 150.035ZM175.967 149.7L175.222 149.837C175.226 149.372 175.29 148.937 175.413 148.531C175.536 148.121 175.716 147.763 175.953 147.458C176.195 147.148 176.493 146.907 176.849 146.733C177.209 146.556 177.623 146.467 178.093 146.467C178.457 146.467 178.785 146.519 179.077 146.624C179.373 146.724 179.626 146.886 179.836 147.109C180.046 147.328 180.205 147.613 180.314 147.964C180.428 148.315 180.485 148.743 180.485 149.249V154H178.667V149.242C178.667 148.882 178.617 148.606 178.517 148.415C178.421 148.224 178.282 148.091 178.1 148.019C177.917 147.941 177.703 147.902 177.457 147.902C177.206 147.902 176.988 147.95 176.801 148.046C176.618 148.137 176.464 148.265 176.336 148.429C176.213 148.593 176.119 148.784 176.056 149.003C175.996 149.217 175.967 149.45 175.967 149.7ZM187.875 154H186.057V146.193C186.057 145.583 186.18 145.068 186.426 144.648C186.676 144.225 187.034 143.903 187.499 143.685C187.968 143.466 188.527 143.356 189.174 143.356C189.552 143.356 189.917 143.395 190.268 143.473C190.623 143.546 190.988 143.641 191.361 143.76L191.095 145.223C190.853 145.145 190.589 145.072 190.302 145.004C190.019 144.936 189.684 144.901 189.297 144.901C188.818 144.901 188.461 145.011 188.224 145.229C187.991 145.448 187.875 145.77 187.875 146.193V154ZM189.352 146.604V147.902H184.942V146.604H189.352ZM192.209 146.604V154H190.397V146.604H192.209ZM195.873 143.5V154H194.062V143.5H195.873ZM201.096 146.604V147.902H196.857V146.604H201.096ZM197.992 144.785H199.804V151.867C199.804 152.086 199.833 152.255 199.893 152.373C199.952 152.492 200.041 152.571 200.159 152.612C200.278 152.653 200.419 152.674 200.583 152.674C200.701 152.674 200.811 152.667 200.911 152.653C201.011 152.64 201.096 152.626 201.164 152.612L201.171 153.966C201.021 154.016 200.85 154.057 200.658 154.089C200.471 154.121 200.259 154.137 200.022 154.137C199.617 154.137 199.261 154.068 198.956 153.932C198.651 153.79 198.414 153.565 198.245 153.255C198.076 152.94 197.992 152.526 197.992 152.011V144.785ZM204.104 148.114V154H202.299V146.604H204.008L204.104 148.114ZM206.353 146.556L206.325 148.237C206.225 148.219 206.111 148.205 205.983 148.196C205.86 148.187 205.744 148.183 205.635 148.183C205.357 148.183 205.113 148.221 204.903 148.299C204.694 148.372 204.518 148.479 204.377 148.62C204.24 148.761 204.135 148.935 204.062 149.14C203.99 149.34 203.949 149.568 203.939 149.823L203.55 149.775C203.55 149.306 203.598 148.871 203.693 148.47C203.789 148.069 203.928 147.718 204.11 147.417C204.293 147.116 204.521 146.884 204.794 146.72C205.072 146.551 205.391 146.467 205.751 146.467C205.851 146.467 205.958 146.476 206.072 146.494C206.191 146.508 206.284 146.528 206.353 146.556ZM206.831 150.377V150.233C206.831 149.691 206.909 149.192 207.063 148.736C207.218 148.276 207.444 147.877 207.74 147.54C208.036 147.203 208.399 146.941 208.827 146.754C209.256 146.562 209.743 146.467 210.29 146.467C210.846 146.467 211.338 146.562 211.767 146.754C212.2 146.941 212.564 147.203 212.86 147.54C213.157 147.877 213.382 148.276 213.537 148.736C213.692 149.192 213.77 149.691 213.77 150.233V150.377C213.77 150.915 213.692 151.414 213.537 151.874C213.382 152.33 213.157 152.729 212.86 153.07C212.564 153.408 212.202 153.67 211.773 153.856C211.345 154.043 210.855 154.137 210.304 154.137C209.757 154.137 209.267 154.043 208.834 153.856C208.401 153.67 208.036 153.408 207.74 153.07C207.444 152.729 207.218 152.33 207.063 151.874C206.909 151.414 206.831 150.915 206.831 150.377ZM208.636 150.233V150.377C208.636 150.701 208.668 151.004 208.731 151.286C208.795 151.569 208.893 151.817 209.025 152.031C209.158 152.245 209.328 152.414 209.538 152.537C209.752 152.656 210.007 152.715 210.304 152.715C210.595 152.715 210.846 152.656 211.056 152.537C211.265 152.414 211.436 152.245 211.568 152.031C211.705 151.817 211.805 151.569 211.869 151.286C211.933 151.004 211.965 150.701 211.965 150.377V150.233C211.965 149.914 211.933 149.616 211.869 149.338C211.805 149.055 211.705 148.807 211.568 148.593C211.436 148.374 211.263 148.203 211.049 148.08C210.839 147.952 210.586 147.889 210.29 147.889C209.998 147.889 209.748 147.952 209.538 148.08C209.328 148.203 209.158 148.374 209.025 148.593C208.893 148.807 208.795 149.055 208.731 149.338C208.668 149.616 208.636 149.914 208.636 150.233ZM220.373 148.025V156.844H218.562V146.604H220.236L220.373 148.025ZM225.124 150.227V150.37C225.124 150.908 225.06 151.407 224.933 151.867C224.81 152.323 224.627 152.722 224.386 153.063C224.144 153.401 223.843 153.665 223.483 153.856C223.128 154.043 222.718 154.137 222.253 154.137C221.797 154.137 221.401 154.05 221.063 153.877C220.726 153.699 220.441 153.449 220.209 153.125C219.977 152.801 219.79 152.425 219.648 151.997C219.512 151.564 219.409 151.092 219.341 150.582V150.124C219.409 149.582 219.512 149.09 219.648 148.647C219.79 148.201 219.977 147.816 220.209 147.492C220.441 147.164 220.724 146.911 221.057 146.733C221.394 146.556 221.788 146.467 222.239 146.467C222.709 146.467 223.121 146.556 223.477 146.733C223.837 146.911 224.14 147.166 224.386 147.499C224.632 147.832 224.816 148.228 224.939 148.688C225.062 149.149 225.124 149.661 225.124 150.227ZM223.312 150.37V150.227C223.312 149.898 223.283 149.595 223.224 149.317C223.164 149.035 223.073 148.789 222.95 148.579C222.827 148.365 222.668 148.199 222.472 148.08C222.276 147.962 222.039 147.902 221.761 147.902C221.483 147.902 221.243 147.948 221.043 148.039C220.842 148.13 220.678 148.26 220.551 148.429C220.423 148.597 220.323 148.798 220.25 149.03C220.182 149.258 220.136 149.511 220.113 149.789V150.924C220.154 151.261 220.234 151.564 220.353 151.833C220.471 152.102 220.644 152.316 220.872 152.476C221.104 152.635 221.405 152.715 221.774 152.715C222.052 152.715 222.289 152.653 222.485 152.53C222.681 152.407 222.841 152.239 222.964 152.024C223.087 151.806 223.176 151.555 223.23 151.272C223.285 150.99 223.312 150.689 223.312 150.37ZM226.122 150.377V150.233C226.122 149.691 226.2 149.192 226.354 148.736C226.509 148.276 226.735 147.877 227.031 147.54C227.327 147.203 227.69 146.941 228.118 146.754C228.547 146.562 229.034 146.467 229.581 146.467C230.137 146.467 230.629 146.562 231.058 146.754C231.491 146.941 231.855 147.203 232.151 147.54C232.448 147.877 232.673 148.276 232.828 148.736C232.983 149.192 233.061 149.691 233.061 150.233V150.377C233.061 150.915 232.983 151.414 232.828 151.874C232.673 152.33 232.448 152.729 232.151 153.07C231.855 153.408 231.493 153.67 231.064 153.856C230.636 154.043 230.146 154.137 229.595 154.137C229.048 154.137 228.558 154.043 228.125 153.856C227.692 153.67 227.327 153.408 227.031 153.07C226.735 152.729 226.509 152.33 226.354 151.874C226.2 151.414 226.122 150.915 226.122 150.377ZM227.927 150.233V150.377C227.927 150.701 227.959 151.004 228.022 151.286C228.086 151.569 228.184 151.817 228.316 152.031C228.449 152.245 228.619 152.414 228.829 152.537C229.043 152.656 229.299 152.715 229.595 152.715C229.886 152.715 230.137 152.656 230.347 152.537C230.556 152.414 230.727 152.245 230.859 152.031C230.996 151.817 231.096 151.569 231.16 151.286C231.224 151.004 231.256 150.701 231.256 150.377V150.233C231.256 149.914 231.224 149.616 231.16 149.338C231.096 149.055 230.996 148.807 230.859 148.593C230.727 148.374 230.554 148.203 230.34 148.08C230.13 147.952 229.877 147.889 229.581 147.889C229.289 147.889 229.039 147.952 228.829 148.08C228.619 148.203 228.449 148.374 228.316 148.593C228.184 148.807 228.086 149.055 228.022 149.338C227.959 149.616 227.927 149.914 227.927 150.233ZM236.178 148.114V154H234.373V146.604H236.082L236.178 148.114ZM238.427 146.556L238.399 148.237C238.299 148.219 238.185 148.205 238.058 148.196C237.935 148.187 237.818 148.183 237.709 148.183C237.431 148.183 237.187 148.221 236.978 148.299C236.768 148.372 236.592 148.479 236.451 148.62C236.314 148.761 236.21 148.935 236.137 149.14C236.064 149.34 236.023 149.568 236.014 149.823L235.624 149.775C235.624 149.306 235.672 148.871 235.768 148.47C235.863 148.069 236.002 147.718 236.185 147.417C236.367 147.116 236.595 146.884 236.868 146.72C237.146 146.551 237.465 146.467 237.825 146.467C237.925 146.467 238.033 146.476 238.146 146.494C238.265 146.508 238.358 146.528 238.427 146.556ZM248.578 144.047H250.458V150.657C250.458 151.418 250.294 152.059 249.966 152.578C249.638 153.093 249.191 153.483 248.626 153.747C248.061 154.007 247.418 154.137 246.698 154.137C245.969 154.137 245.32 154.007 244.75 153.747C244.18 153.483 243.734 153.093 243.41 152.578C243.087 152.059 242.925 151.418 242.925 150.657V144.047H244.805V150.657C244.805 151.122 244.882 151.503 245.037 151.799C245.192 152.09 245.411 152.307 245.693 152.448C245.976 152.59 246.311 152.66 246.698 152.66C247.09 152.66 247.425 152.59 247.703 152.448C247.986 152.307 248.202 152.09 248.353 151.799C248.503 151.503 248.578 151.122 248.578 150.657V144.047ZM254.122 144.047V154H252.242V144.047H254.122ZM258.135 148.347V149.83H253.63V148.347H258.135ZM258.661 144.047V145.53H253.63V144.047H258.661ZM266.611 154.137C266.051 154.137 265.547 154.046 265.101 153.863C264.654 153.681 264.273 153.428 263.959 153.104C263.649 152.776 263.41 152.396 263.241 151.963C263.077 151.525 262.995 151.056 262.995 150.555V150.281C262.995 149.712 263.077 149.194 263.241 148.729C263.405 148.26 263.638 147.857 263.938 147.52C264.239 147.182 264.599 146.923 265.019 146.74C265.438 146.558 265.9 146.467 266.406 146.467C266.93 146.467 267.393 146.556 267.794 146.733C268.195 146.907 268.53 147.153 268.799 147.472C269.068 147.791 269.271 148.174 269.407 148.62C269.544 149.062 269.612 149.552 269.612 150.09V150.849H263.815V149.604H267.835V149.468C267.826 149.181 267.771 148.919 267.671 148.682C267.571 148.44 267.416 148.249 267.206 148.107C266.996 147.962 266.725 147.889 266.393 147.889C266.124 147.889 265.889 147.948 265.688 148.066C265.493 148.18 265.328 148.344 265.196 148.559C265.069 148.768 264.973 149.019 264.909 149.311C264.845 149.602 264.813 149.926 264.813 150.281V150.555C264.813 150.865 264.854 151.152 264.937 151.416C265.023 151.68 265.148 151.91 265.312 152.106C265.481 152.298 265.682 152.448 265.914 152.558C266.151 152.662 266.42 152.715 266.721 152.715C267.099 152.715 267.441 152.642 267.746 152.496C268.056 152.346 268.325 152.125 268.553 151.833L269.462 152.776C269.307 153.004 269.097 153.223 268.833 153.433C268.573 153.642 268.259 153.813 267.89 153.945C267.521 154.073 267.094 154.137 266.611 154.137ZM341.738 148.025V156.844H339.927V146.604H341.602L341.738 148.025ZM346.489 150.227V150.37C346.489 150.908 346.425 151.407 346.298 151.867C346.175 152.323 345.993 152.722 345.751 153.063C345.509 153.401 345.209 153.665 344.849 153.856C344.493 154.043 344.083 154.137 343.618 154.137C343.162 154.137 342.766 154.05 342.429 153.877C342.091 153.699 341.807 153.449 341.574 153.125C341.342 152.801 341.155 152.425 341.014 151.997C340.877 151.564 340.774 151.092 340.706 150.582V150.124C340.774 149.582 340.877 149.09 341.014 148.647C341.155 148.201 341.342 147.816 341.574 147.492C341.807 147.164 342.089 146.911 342.422 146.733C342.759 146.556 343.153 146.467 343.604 146.467C344.074 146.467 344.486 146.556 344.842 146.733C345.202 146.911 345.505 147.166 345.751 147.499C345.997 147.832 346.182 148.228 346.305 148.688C346.428 149.149 346.489 149.661 346.489 150.227ZM344.678 150.37V150.227C344.678 149.898 344.648 149.595 344.589 149.317C344.53 149.035 344.438 148.789 344.315 148.579C344.192 148.365 344.033 148.199 343.837 148.08C343.641 147.962 343.404 147.902 343.126 147.902C342.848 147.902 342.609 147.948 342.408 148.039C342.208 148.13 342.044 148.26 341.916 148.429C341.788 148.597 341.688 148.798 341.615 149.03C341.547 149.258 341.501 149.511 341.479 149.789V150.924C341.52 151.261 341.599 151.564 341.718 151.833C341.836 152.102 342.009 152.316 342.237 152.476C342.47 152.635 342.771 152.715 343.14 152.715C343.418 152.715 343.655 152.653 343.851 152.53C344.047 152.407 344.206 152.239 344.329 152.024C344.452 151.806 344.541 151.555 344.596 151.272C344.65 150.99 344.678 150.689 344.678 150.37ZM351.883 152.428V149.017C351.883 148.766 351.84 148.549 351.753 148.367C351.666 148.185 351.534 148.044 351.356 147.943C351.179 147.843 350.953 147.793 350.68 147.793C350.438 147.793 350.226 147.834 350.044 147.916C349.866 147.998 349.729 148.114 349.634 148.265C349.538 148.41 349.49 148.579 349.49 148.771H347.679C347.679 148.465 347.752 148.176 347.897 147.902C348.043 147.624 348.251 147.378 348.52 147.164C348.793 146.945 349.119 146.774 349.497 146.651C349.88 146.528 350.308 146.467 350.782 146.467C351.343 146.467 351.842 146.562 352.279 146.754C352.721 146.941 353.068 147.223 353.318 147.602C353.574 147.98 353.701 148.456 353.701 149.03V152.257C353.701 152.626 353.724 152.943 353.77 153.207C353.82 153.467 353.893 153.692 353.988 153.884V154H352.149C352.063 153.813 351.997 153.576 351.951 153.289C351.906 152.997 351.883 152.71 351.883 152.428ZM352.136 149.495L352.149 150.568H351.008C350.725 150.568 350.477 150.598 350.263 150.657C350.049 150.712 349.873 150.794 349.736 150.903C349.6 151.008 349.497 151.136 349.429 151.286C349.36 151.432 349.326 151.598 349.326 151.785C349.326 151.967 349.367 152.132 349.449 152.277C349.536 152.423 349.659 152.539 349.818 152.626C349.982 152.708 350.174 152.749 350.393 152.749C350.712 152.749 350.99 152.685 351.227 152.558C351.464 152.425 351.648 152.266 351.78 152.079C351.912 151.892 351.983 151.715 351.992 151.546L352.512 152.325C352.448 152.512 352.352 152.71 352.225 152.92C352.097 153.13 351.933 153.326 351.732 153.508C351.532 153.69 351.29 153.84 351.008 153.959C350.725 154.077 350.397 154.137 350.023 154.137C349.545 154.137 349.117 154.041 348.738 153.85C348.36 153.658 348.062 153.396 347.843 153.063C347.624 152.731 347.515 152.353 347.515 151.929C347.515 151.537 347.588 151.19 347.733 150.89C347.879 150.589 348.096 150.336 348.383 150.131C348.67 149.921 349.025 149.764 349.449 149.659C349.878 149.55 350.368 149.495 350.919 149.495H352.136ZM357.133 148.114V154H355.328V146.604H357.037L357.133 148.114ZM359.382 146.556L359.354 148.237C359.254 148.219 359.14 148.205 359.013 148.196C358.89 148.187 358.773 148.183 358.664 148.183C358.386 148.183 358.142 148.221 357.933 148.299C357.723 148.372 357.548 148.479 357.406 148.62C357.27 148.761 357.165 148.935 357.092 149.14C357.019 149.34 356.978 149.568 356.969 149.823L356.579 149.775C356.579 149.306 356.627 148.871 356.723 148.47C356.818 148.069 356.957 147.718 357.14 147.417C357.322 147.116 357.55 146.884 357.823 146.72C358.101 146.551 358.42 146.467 358.78 146.467C358.881 146.467 358.988 146.476 359.102 146.494C359.22 146.508 359.313 146.528 359.382 146.556ZM364.215 152.428V149.017C364.215 148.766 364.172 148.549 364.085 148.367C363.998 148.185 363.866 148.044 363.688 147.943C363.511 147.843 363.285 147.793 363.012 147.793C362.77 147.793 362.558 147.834 362.376 147.916C362.198 147.998 362.062 148.114 361.966 148.265C361.87 148.41 361.822 148.579 361.822 148.771H360.011C360.011 148.465 360.084 148.176 360.229 147.902C360.375 147.624 360.583 147.378 360.852 147.164C361.125 146.945 361.451 146.774 361.829 146.651C362.212 146.528 362.64 146.467 363.114 146.467C363.675 146.467 364.174 146.562 364.611 146.754C365.053 146.941 365.4 147.223 365.65 147.602C365.906 147.98 366.033 148.456 366.033 149.03V152.257C366.033 152.626 366.056 152.943 366.102 153.207C366.152 153.467 366.225 153.692 366.32 153.884V154H364.481C364.395 153.813 364.329 153.576 364.283 153.289C364.238 152.997 364.215 152.71 364.215 152.428ZM364.468 149.495L364.481 150.568H363.34C363.057 150.568 362.809 150.598 362.595 150.657C362.381 150.712 362.205 150.794 362.068 150.903C361.932 151.008 361.829 151.136 361.761 151.286C361.692 151.432 361.658 151.598 361.658 151.785C361.658 151.967 361.699 152.132 361.781 152.277C361.868 152.423 361.991 152.539 362.15 152.626C362.314 152.708 362.506 152.749 362.725 152.749C363.044 152.749 363.322 152.685 363.559 152.558C363.796 152.425 363.98 152.266 364.112 152.079C364.244 151.892 364.315 151.715 364.324 151.546L364.844 152.325C364.78 152.512 364.684 152.71 364.557 152.92C364.429 153.13 364.265 153.326 364.064 153.508C363.864 153.69 363.622 153.84 363.34 153.959C363.057 154.077 362.729 154.137 362.355 154.137C361.877 154.137 361.449 154.041 361.07 153.85C360.692 153.658 360.394 153.396 360.175 153.063C359.956 152.731 359.847 152.353 359.847 151.929C359.847 151.537 359.92 151.19 360.065 150.89C360.211 150.589 360.428 150.336 360.715 150.131C361.002 149.921 361.357 149.764 361.781 149.659C362.21 149.55 362.7 149.495 363.251 149.495H364.468ZM373.601 152.633L375.323 146.604H377.21L374.674 154H373.525L373.601 152.633ZM372.343 146.604L374.086 152.646L374.147 154H372.992L370.449 146.604H372.343ZM380.074 146.604V154H378.263V146.604H380.074ZM378.14 144.669C378.14 144.4 378.231 144.177 378.413 143.999C378.6 143.821 378.851 143.732 379.165 143.732C379.479 143.732 379.728 143.821 379.91 143.999C380.097 144.177 380.19 144.4 380.19 144.669C380.19 144.933 380.097 145.154 379.91 145.332C379.728 145.51 379.479 145.599 379.165 145.599C378.851 145.599 378.6 145.51 378.413 145.332C378.231 145.154 378.14 144.933 378.14 144.669ZM385.864 151.977C385.864 151.822 385.823 151.683 385.741 151.56C385.659 151.437 385.504 151.325 385.276 151.225C385.053 151.12 384.725 151.022 384.292 150.931C383.909 150.849 383.556 150.746 383.232 150.623C382.909 150.5 382.631 150.352 382.398 150.179C382.166 150.001 381.984 149.794 381.852 149.557C381.724 149.315 381.66 149.037 381.66 148.723C381.66 148.417 381.726 148.13 381.858 147.861C381.991 147.588 382.182 147.349 382.433 147.144C382.683 146.934 382.989 146.77 383.349 146.651C383.709 146.528 384.114 146.467 384.565 146.467C385.194 146.467 385.734 146.569 386.186 146.774C386.641 146.979 386.99 147.262 387.231 147.622C387.473 147.978 387.594 148.379 387.594 148.825H385.789C385.789 148.629 385.743 148.451 385.652 148.292C385.566 148.132 385.431 148.005 385.249 147.909C385.067 147.809 384.837 147.759 384.559 147.759C384.308 147.759 384.096 147.8 383.923 147.882C383.754 147.964 383.627 148.071 383.54 148.203C383.453 148.335 383.41 148.481 383.41 148.641C383.41 148.759 383.433 148.866 383.479 148.962C383.529 149.053 383.608 149.137 383.718 149.215C383.827 149.292 383.975 149.363 384.162 149.427C384.354 149.491 384.588 149.552 384.866 149.611C385.418 149.721 385.898 149.867 386.309 150.049C386.723 150.227 387.047 150.464 387.279 150.76C387.512 151.056 387.628 151.434 387.628 151.895C387.628 152.223 387.557 152.523 387.416 152.797C387.275 153.066 387.07 153.3 386.801 153.501C386.532 153.701 386.211 153.859 385.837 153.973C385.463 154.082 385.042 154.137 384.572 154.137C383.893 154.137 383.319 154.016 382.85 153.774C382.38 153.528 382.025 153.218 381.783 152.845C381.542 152.466 381.421 152.075 381.421 151.669H383.15C383.164 151.956 383.242 152.186 383.383 152.359C383.524 152.533 383.702 152.658 383.916 152.735C384.135 152.808 384.365 152.845 384.606 152.845C384.88 152.845 385.11 152.808 385.297 152.735C385.484 152.658 385.625 152.555 385.721 152.428C385.816 152.296 385.864 152.145 385.864 151.977ZM393.404 152.243V146.604H395.223V154H393.514L393.404 152.243ZM393.637 150.712L394.197 150.698C394.197 151.195 394.143 151.653 394.033 152.072C393.924 152.492 393.753 152.856 393.521 153.166C393.293 153.471 393.003 153.711 392.652 153.884C392.301 154.052 391.887 154.137 391.408 154.137C391.044 154.137 390.711 154.087 390.41 153.986C390.109 153.882 389.85 153.72 389.631 153.501C389.417 153.278 389.25 152.993 389.132 152.646C389.013 152.296 388.954 151.874 388.954 151.382V146.604H390.759V151.396C390.759 151.642 390.786 151.847 390.841 152.011C390.9 152.175 390.98 152.309 391.08 152.414C391.185 152.514 391.306 152.587 391.442 152.633C391.584 152.674 391.734 152.694 391.894 152.694C392.331 152.694 392.675 152.608 392.926 152.435C393.181 152.257 393.363 152.02 393.473 151.724C393.582 151.423 393.637 151.086 393.637 150.712ZM400.896 152.428V149.017C400.896 148.766 400.853 148.549 400.767 148.367C400.68 148.185 400.548 148.044 400.37 147.943C400.192 147.843 399.967 147.793 399.693 147.793C399.452 147.793 399.24 147.834 399.058 147.916C398.88 147.998 398.743 148.114 398.647 148.265C398.552 148.41 398.504 148.579 398.504 148.771H396.692C396.692 148.465 396.765 148.176 396.911 147.902C397.057 147.624 397.264 147.378 397.533 147.164C397.807 146.945 398.132 146.774 398.511 146.651C398.894 146.528 399.322 146.467 399.796 146.467C400.356 146.467 400.855 146.562 401.293 146.754C401.735 146.941 402.081 147.223 402.332 147.602C402.587 147.98 402.715 148.456 402.715 149.03V152.257C402.715 152.626 402.738 152.943 402.783 153.207C402.833 153.467 402.906 153.692 403.002 153.884V154H401.163C401.076 153.813 401.01 153.576 400.965 153.289C400.919 152.997 400.896 152.71 400.896 152.428ZM401.149 149.495L401.163 150.568H400.021C399.739 150.568 399.491 150.598 399.276 150.657C399.062 150.712 398.887 150.794 398.75 150.903C398.613 151.008 398.511 151.136 398.442 151.286C398.374 151.432 398.34 151.598 398.34 151.785C398.34 151.967 398.381 152.132 398.463 152.277C398.549 152.423 398.673 152.539 398.832 152.626C398.996 152.708 399.188 152.749 399.406 152.749C399.725 152.749 400.003 152.685 400.24 152.558C400.477 152.425 400.662 152.266 400.794 152.079C400.926 151.892 400.997 151.715 401.006 151.546L401.525 152.325C401.462 152.512 401.366 152.71 401.238 152.92C401.111 153.13 400.947 153.326 400.746 153.508C400.546 153.69 400.304 153.84 400.021 153.959C399.739 154.077 399.411 154.137 399.037 154.137C398.559 154.137 398.13 154.041 397.752 153.85C397.374 153.658 397.075 153.396 396.856 153.063C396.638 152.731 396.528 152.353 396.528 151.929C396.528 151.537 396.601 151.19 396.747 150.89C396.893 150.589 397.109 150.336 397.396 150.131C397.684 149.921 398.039 149.764 398.463 149.659C398.891 149.55 399.381 149.495 399.933 149.495H401.149ZM406.256 143.5V154H404.444V143.5H406.256ZM409.893 146.604V154H408.081V146.604H409.893ZM407.958 144.669C407.958 144.4 408.049 144.177 408.231 143.999C408.418 143.821 408.669 143.732 408.983 143.732C409.298 143.732 409.546 143.821 409.729 143.999C409.915 144.177 410.009 144.4 410.009 144.669C410.009 144.933 409.915 145.154 409.729 145.332C409.546 145.51 409.298 145.599 408.983 145.599C408.669 145.599 408.418 145.51 408.231 145.332C408.049 145.154 407.958 144.933 407.958 144.669ZM417.412 152.578V154H411.848V152.578H417.412ZM417.282 147.684L412.524 154H411.335V152.886L416.065 146.604H417.282V147.684ZM416.619 146.604V148.032H411.431V146.604H416.619ZM422.771 152.428V149.017C422.771 148.766 422.728 148.549 422.642 148.367C422.555 148.185 422.423 148.044 422.245 147.943C422.067 147.843 421.842 147.793 421.568 147.793C421.327 147.793 421.115 147.834 420.933 147.916C420.755 147.998 420.618 148.114 420.522 148.265C420.427 148.41 420.379 148.579 420.379 148.771H418.567C418.567 148.465 418.64 148.176 418.786 147.902C418.932 147.624 419.139 147.378 419.408 147.164C419.682 146.945 420.007 146.774 420.386 146.651C420.769 146.528 421.197 146.467 421.671 146.467C422.231 146.467 422.73 146.562 423.168 146.754C423.61 146.941 423.956 147.223 424.207 147.602C424.462 147.98 424.59 148.456 424.59 149.03V152.257C424.59 152.626 424.613 152.943 424.658 153.207C424.708 153.467 424.781 153.692 424.877 153.884V154H423.038C422.951 153.813 422.885 153.576 422.84 153.289C422.794 152.997 422.771 152.71 422.771 152.428ZM423.024 149.495L423.038 150.568H421.896C421.614 150.568 421.366 150.598 421.151 150.657C420.937 150.712 420.762 150.794 420.625 150.903C420.488 151.008 420.386 151.136 420.317 151.286C420.249 151.432 420.215 151.598 420.215 151.785C420.215 151.967 420.256 152.132 420.338 152.277C420.424 152.423 420.548 152.539 420.707 152.626C420.871 152.708 421.062 152.749 421.281 152.749C421.6 152.749 421.878 152.685 422.115 152.558C422.352 152.425 422.537 152.266 422.669 152.079C422.801 151.892 422.872 151.715 422.881 151.546L423.4 152.325C423.337 152.512 423.241 152.71 423.113 152.92C422.986 153.13 422.822 153.326 422.621 153.508C422.421 153.69 422.179 153.84 421.896 153.959C421.614 154.077 421.286 154.137 420.912 154.137C420.434 154.137 420.005 154.041 419.627 153.85C419.249 153.658 418.95 153.396 418.731 153.063C418.513 152.731 418.403 152.353 418.403 151.929C418.403 151.537 418.476 151.19 418.622 150.89C418.768 150.589 418.984 150.336 419.271 150.131C419.559 149.921 419.914 149.764 420.338 149.659C420.766 149.55 421.256 149.495 421.808 149.495H423.024ZM428.021 148.114V154H426.217V146.604H427.926L428.021 148.114ZM430.271 146.556L430.243 148.237C430.143 148.219 430.029 148.205 429.901 148.196C429.778 148.187 429.662 148.183 429.553 148.183C429.275 148.183 429.031 148.221 428.821 148.299C428.612 148.372 428.436 148.479 428.295 148.62C428.158 148.761 428.053 148.935 427.98 149.14C427.908 149.34 427.867 149.568 427.857 149.823L427.468 149.775C427.468 149.306 427.516 148.871 427.611 148.47C427.707 148.069 427.846 147.718 428.028 147.417C428.211 147.116 428.438 146.884 428.712 146.72C428.99 146.551 429.309 146.467 429.669 146.467C429.769 146.467 429.876 146.476 429.99 146.494C430.109 146.508 430.202 146.528 430.271 146.556ZM434.427 150.377V150.233C434.427 149.691 434.504 149.192 434.659 148.736C434.814 148.276 435.04 147.877 435.336 147.54C435.632 147.203 435.994 146.941 436.423 146.754C436.851 146.562 437.339 146.467 437.886 146.467C438.442 146.467 438.934 146.562 439.362 146.754C439.795 146.941 440.16 147.203 440.456 147.54C440.752 147.877 440.978 148.276 441.133 148.736C441.288 149.192 441.365 149.691 441.365 150.233V150.377C441.365 150.915 441.288 151.414 441.133 151.874C440.978 152.33 440.752 152.729 440.456 153.07C440.16 153.408 439.798 153.67 439.369 153.856C438.941 154.043 438.451 154.137 437.899 154.137C437.353 154.137 436.863 154.043 436.43 153.856C435.997 153.67 435.632 153.408 435.336 153.07C435.04 152.729 434.814 152.33 434.659 151.874C434.504 151.414 434.427 150.915 434.427 150.377ZM436.231 150.233V150.377C436.231 150.701 436.263 151.004 436.327 151.286C436.391 151.569 436.489 151.817 436.621 152.031C436.753 152.245 436.924 152.414 437.134 152.537C437.348 152.656 437.603 152.715 437.899 152.715C438.191 152.715 438.442 152.656 438.651 152.537C438.861 152.414 439.032 152.245 439.164 152.031C439.301 151.817 439.401 151.569 439.465 151.286C439.529 151.004 439.561 150.701 439.561 150.377V150.233C439.561 149.914 439.529 149.616 439.465 149.338C439.401 149.055 439.301 148.807 439.164 148.593C439.032 148.374 438.859 148.203 438.645 148.08C438.435 147.952 438.182 147.889 437.886 147.889C437.594 147.889 437.343 147.952 437.134 148.08C436.924 148.203 436.753 148.374 436.621 148.593C436.489 148.807 436.391 149.055 436.327 149.338C436.263 149.616 436.231 149.914 436.231 150.233ZM446.745 151.977C446.745 151.822 446.704 151.683 446.622 151.56C446.54 151.437 446.385 151.325 446.157 151.225C445.934 151.12 445.606 151.022 445.173 150.931C444.79 150.849 444.437 150.746 444.113 150.623C443.79 150.5 443.512 150.352 443.279 150.179C443.047 150.001 442.865 149.794 442.732 149.557C442.605 149.315 442.541 149.037 442.541 148.723C442.541 148.417 442.607 148.13 442.739 147.861C442.871 147.588 443.063 147.349 443.313 147.144C443.564 146.934 443.869 146.77 444.229 146.651C444.59 146.528 444.995 146.467 445.446 146.467C446.075 146.467 446.615 146.569 447.066 146.774C447.522 146.979 447.871 147.262 448.112 147.622C448.354 147.978 448.475 148.379 448.475 148.825H446.67C446.67 148.629 446.624 148.451 446.533 148.292C446.447 148.132 446.312 148.005 446.13 147.909C445.948 147.809 445.717 147.759 445.439 147.759C445.189 147.759 444.977 147.8 444.804 147.882C444.635 147.964 444.507 148.071 444.421 148.203C444.334 148.335 444.291 148.481 444.291 148.641C444.291 148.759 444.314 148.866 444.359 148.962C444.41 149.053 444.489 149.137 444.599 149.215C444.708 149.292 444.856 149.363 445.043 149.427C445.234 149.491 445.469 149.552 445.747 149.611C446.299 149.721 446.779 149.867 447.189 150.049C447.604 150.227 447.928 150.464 448.16 150.76C448.393 151.056 448.509 151.434 448.509 151.895C448.509 152.223 448.438 152.523 448.297 152.797C448.156 153.066 447.951 153.3 447.682 153.501C447.413 153.701 447.091 153.859 446.718 153.973C446.344 154.082 445.923 154.137 445.453 154.137C444.774 154.137 444.2 154.016 443.73 153.774C443.261 153.528 442.906 153.218 442.664 152.845C442.423 152.466 442.302 152.075 442.302 151.669H444.031C444.045 151.956 444.122 152.186 444.264 152.359C444.405 152.533 444.583 152.658 444.797 152.735C445.016 152.808 445.246 152.845 445.487 152.845C445.761 152.845 445.991 152.808 446.178 152.735C446.365 152.658 446.506 152.555 446.602 152.428C446.697 152.296 446.745 152.145 446.745 151.977ZM457.806 152.428V143.5H459.624V154H457.983L457.806 152.428ZM453.055 150.391V150.247C453.055 149.682 453.118 149.169 453.246 148.709C453.378 148.244 453.57 147.845 453.82 147.513C454.071 147.18 454.374 146.923 454.729 146.74C455.09 146.558 455.497 146.467 455.953 146.467C456.395 146.467 456.78 146.556 457.108 146.733C457.441 146.911 457.724 147.164 457.956 147.492C458.193 147.82 458.382 148.21 458.523 148.661C458.665 149.108 458.767 149.6 458.831 150.138V150.527C458.767 151.051 458.665 151.532 458.523 151.97C458.382 152.407 458.193 152.79 457.956 153.118C457.724 153.442 457.441 153.692 457.108 153.87C456.776 154.048 456.386 154.137 455.939 154.137C455.488 154.137 455.083 154.043 454.723 153.856C454.367 153.67 454.064 153.408 453.813 153.07C453.567 152.733 453.378 152.337 453.246 151.881C453.118 151.425 453.055 150.928 453.055 150.391ZM454.866 150.247V150.391C454.866 150.71 454.894 151.008 454.948 151.286C455.003 151.564 455.092 151.81 455.215 152.024C455.338 152.234 455.495 152.398 455.687 152.517C455.882 152.635 456.119 152.694 456.397 152.694C456.753 152.694 457.045 152.617 457.272 152.462C457.505 152.302 457.685 152.086 457.812 151.812C457.94 151.535 458.022 151.222 458.059 150.876V149.803C458.04 149.529 457.993 149.276 457.915 149.044C457.842 148.812 457.737 148.611 457.601 148.442C457.468 148.274 457.304 148.142 457.108 148.046C456.912 147.95 456.68 147.902 456.411 147.902C456.133 147.902 455.896 147.964 455.7 148.087C455.504 148.205 455.345 148.372 455.222 148.586C455.099 148.8 455.007 149.049 454.948 149.331C454.894 149.614 454.866 149.919 454.866 150.247ZM465.332 152.428V149.017C465.332 148.766 465.289 148.549 465.202 148.367C465.116 148.185 464.983 148.044 464.806 147.943C464.628 147.843 464.402 147.793 464.129 147.793C463.887 147.793 463.675 147.834 463.493 147.916C463.315 147.998 463.179 148.114 463.083 148.265C462.987 148.41 462.939 148.579 462.939 148.771H461.128C461.128 148.465 461.201 148.176 461.347 147.902C461.493 147.624 461.7 147.378 461.969 147.164C462.242 146.945 462.568 146.774 462.946 146.651C463.329 146.528 463.757 146.467 464.231 146.467C464.792 146.467 465.291 146.562 465.729 146.754C466.171 146.941 466.517 147.223 466.768 147.602C467.023 147.98 467.15 148.456 467.15 149.03V152.257C467.15 152.626 467.173 152.943 467.219 153.207C467.269 153.467 467.342 153.692 467.438 153.884V154H465.599C465.512 153.813 465.446 153.576 465.4 153.289C465.355 152.997 465.332 152.71 465.332 152.428ZM465.585 149.495L465.599 150.568H464.457C464.174 150.568 463.926 150.598 463.712 150.657C463.498 150.712 463.322 150.794 463.186 150.903C463.049 151.008 462.946 151.136 462.878 151.286C462.81 151.432 462.775 151.598 462.775 151.785C462.775 151.967 462.816 152.132 462.898 152.277C462.985 152.423 463.108 152.539 463.268 152.626C463.432 152.708 463.623 152.749 463.842 152.749C464.161 152.749 464.439 152.685 464.676 152.558C464.913 152.425 465.097 152.266 465.229 152.079C465.362 151.892 465.432 151.715 465.441 151.546L465.961 152.325C465.897 152.512 465.801 152.71 465.674 152.92C465.546 153.13 465.382 153.326 465.182 153.508C464.981 153.69 464.74 153.84 464.457 153.959C464.174 154.077 463.846 154.137 463.473 154.137C462.994 154.137 462.566 154.041 462.188 153.85C461.809 153.658 461.511 153.396 461.292 153.063C461.073 152.731 460.964 152.353 460.964 151.929C460.964 151.537 461.037 151.19 461.183 150.89C461.328 150.589 461.545 150.336 461.832 150.131C462.119 149.921 462.475 149.764 462.898 149.659C463.327 149.55 463.817 149.495 464.368 149.495H465.585ZM473.214 152.428V143.5H475.032V154H473.392L473.214 152.428ZM468.463 150.391V150.247C468.463 149.682 468.527 149.169 468.654 148.709C468.786 148.244 468.978 147.845 469.229 147.513C469.479 147.18 469.782 146.923 470.138 146.74C470.498 146.558 470.906 146.467 471.361 146.467C471.803 146.467 472.188 146.556 472.517 146.733C472.849 146.911 473.132 147.164 473.364 147.492C473.601 147.82 473.79 148.21 473.932 148.661C474.073 149.108 474.175 149.6 474.239 150.138V150.527C474.175 151.051 474.073 151.532 473.932 151.97C473.79 152.407 473.601 152.79 473.364 153.118C473.132 153.442 472.849 153.692 472.517 153.87C472.184 154.048 471.794 154.137 471.348 154.137C470.896 154.137 470.491 154.043 470.131 153.856C469.775 153.67 469.472 153.408 469.222 153.07C468.976 152.733 468.786 152.337 468.654 151.881C468.527 151.425 468.463 150.928 468.463 150.391ZM470.274 150.247V150.391C470.274 150.71 470.302 151.008 470.356 151.286C470.411 151.564 470.5 151.81 470.623 152.024C470.746 152.234 470.903 152.398 471.095 152.517C471.291 152.635 471.528 152.694 471.806 152.694C472.161 152.694 472.453 152.617 472.681 152.462C472.913 152.302 473.093 152.086 473.221 151.812C473.348 151.535 473.43 151.222 473.467 150.876V149.803C473.449 149.529 473.401 149.276 473.323 149.044C473.25 148.812 473.146 148.611 473.009 148.442C472.877 148.274 472.713 148.142 472.517 148.046C472.321 147.95 472.088 147.902 471.819 147.902C471.541 147.902 471.304 147.964 471.108 148.087C470.912 148.205 470.753 148.372 470.63 148.586C470.507 148.8 470.416 149.049 470.356 149.331C470.302 149.614 470.274 149.919 470.274 150.247ZM476.345 150.377V150.233C476.345 149.691 476.422 149.192 476.577 148.736C476.732 148.276 476.958 147.877 477.254 147.54C477.55 147.203 477.912 146.941 478.341 146.754C478.769 146.562 479.257 146.467 479.804 146.467C480.36 146.467 480.852 146.562 481.28 146.754C481.713 146.941 482.078 147.203 482.374 147.54C482.67 147.877 482.896 148.276 483.051 148.736C483.206 149.192 483.283 149.691 483.283 150.233V150.377C483.283 150.915 483.206 151.414 483.051 151.874C482.896 152.33 482.67 152.729 482.374 153.07C482.078 153.408 481.715 153.67 481.287 153.856C480.859 154.043 480.369 154.137 479.817 154.137C479.271 154.137 478.781 154.043 478.348 153.856C477.915 153.67 477.55 153.408 477.254 153.07C476.958 152.729 476.732 152.33 476.577 151.874C476.422 151.414 476.345 150.915 476.345 150.377ZM478.149 150.233V150.377C478.149 150.701 478.181 151.004 478.245 151.286C478.309 151.569 478.407 151.817 478.539 152.031C478.671 152.245 478.842 152.414 479.052 152.537C479.266 152.656 479.521 152.715 479.817 152.715C480.109 152.715 480.36 152.656 480.569 152.537C480.779 152.414 480.95 152.245 481.082 152.031C481.219 151.817 481.319 151.569 481.383 151.286C481.447 151.004 481.479 150.701 481.479 150.377V150.233C481.479 149.914 481.447 149.616 481.383 149.338C481.319 149.055 481.219 148.807 481.082 148.593C480.95 148.374 480.777 148.203 480.562 148.08C480.353 147.952 480.1 147.889 479.804 147.889C479.512 147.889 479.261 147.952 479.052 148.08C478.842 148.203 478.671 148.374 478.539 148.593C478.407 148.807 478.309 149.055 478.245 149.338C478.181 149.616 478.149 149.914 478.149 150.233ZM488.663 151.977C488.663 151.822 488.622 151.683 488.54 151.56C488.458 151.437 488.303 151.325 488.075 151.225C487.852 151.12 487.524 151.022 487.091 150.931C486.708 150.849 486.355 150.746 486.031 150.623C485.708 150.5 485.43 150.352 485.197 150.179C484.965 150.001 484.783 149.794 484.65 149.557C484.523 149.315 484.459 149.037 484.459 148.723C484.459 148.417 484.525 148.13 484.657 147.861C484.789 147.588 484.981 147.349 485.231 147.144C485.482 146.934 485.787 146.77 486.147 146.651C486.507 146.528 486.913 146.467 487.364 146.467C487.993 146.467 488.533 146.569 488.984 146.774C489.44 146.979 489.789 147.262 490.03 147.622C490.272 147.978 490.393 148.379 490.393 148.825H488.588C488.588 148.629 488.542 148.451 488.451 148.292C488.365 148.132 488.23 148.005 488.048 147.909C487.866 147.809 487.635 147.759 487.357 147.759C487.107 147.759 486.895 147.8 486.722 147.882C486.553 147.964 486.425 148.071 486.339 148.203C486.252 148.335 486.209 148.481 486.209 148.641C486.209 148.759 486.232 148.866 486.277 148.962C486.327 149.053 486.407 149.137 486.517 149.215C486.626 149.292 486.774 149.363 486.961 149.427C487.152 149.491 487.387 149.552 487.665 149.611C488.216 149.721 488.697 149.867 489.107 150.049C489.522 150.227 489.846 150.464 490.078 150.76C490.311 151.056 490.427 151.434 490.427 151.895C490.427 152.223 490.356 152.523 490.215 152.797C490.074 153.066 489.868 153.3 489.6 153.501C489.331 153.701 489.009 153.859 488.636 153.973C488.262 154.082 487.84 154.137 487.371 154.137C486.692 154.137 486.118 154.016 485.648 153.774C485.179 153.528 484.824 153.218 484.582 152.845C484.34 152.466 484.22 152.075 484.22 151.669H485.949C485.963 151.956 486.04 152.186 486.182 152.359C486.323 152.533 486.501 152.658 486.715 152.735C486.934 152.808 487.164 152.845 487.405 152.845C487.679 152.845 487.909 152.808 488.096 152.735C488.283 152.658 488.424 152.555 488.52 152.428C488.615 152.296 488.663 152.145 488.663 151.977Z" fill="#495057"/>
<path d="M276.229 148.135V154H274.254V146.604H276.106L276.229 148.135ZM275.956 150.042H275.409C275.409 149.527 275.471 149.053 275.594 148.62C275.721 148.183 275.906 147.804 276.147 147.485C276.394 147.162 276.697 146.911 277.057 146.733C277.417 146.556 277.834 146.467 278.308 146.467C278.636 146.467 278.937 146.517 279.21 146.617C279.483 146.713 279.718 146.866 279.914 147.075C280.115 147.28 280.27 147.549 280.379 147.882C280.488 148.21 280.543 148.604 280.543 149.064V154H278.574V149.283C278.574 148.946 278.529 148.686 278.438 148.504C278.346 148.322 278.216 148.194 278.048 148.121C277.884 148.048 277.686 148.012 277.453 148.012C277.198 148.012 276.975 148.064 276.783 148.169C276.596 148.274 276.441 148.42 276.318 148.606C276.195 148.789 276.104 149.003 276.045 149.249C275.986 149.495 275.956 149.759 275.956 150.042ZM280.358 149.816L279.654 149.905C279.654 149.422 279.714 148.973 279.832 148.559C279.955 148.144 280.135 147.779 280.372 147.465C280.614 147.15 280.912 146.907 281.268 146.733C281.623 146.556 282.033 146.467 282.498 146.467C282.854 146.467 283.177 146.519 283.469 146.624C283.76 146.724 284.009 146.886 284.214 147.109C284.424 147.328 284.583 147.615 284.692 147.971C284.806 148.326 284.863 148.761 284.863 149.276V154H282.888V149.276C282.888 148.935 282.842 148.675 282.751 148.497C282.664 148.315 282.537 148.189 282.368 148.121C282.204 148.048 282.008 148.012 281.78 148.012C281.543 148.012 281.336 148.06 281.158 148.155C280.98 148.246 280.832 148.374 280.714 148.538C280.595 148.702 280.507 148.894 280.447 149.112C280.388 149.326 280.358 149.561 280.358 149.816ZM290.763 152.229V146.604H292.731V154H290.879L290.763 152.229ZM290.981 150.712L291.562 150.698C291.562 151.19 291.506 151.648 291.392 152.072C291.278 152.492 291.107 152.856 290.879 153.166C290.651 153.471 290.364 153.711 290.018 153.884C289.671 154.052 289.263 154.137 288.794 154.137C288.434 154.137 288.101 154.087 287.796 153.986C287.495 153.882 287.235 153.72 287.017 153.501C286.802 153.278 286.634 152.993 286.511 152.646C286.392 152.296 286.333 151.874 286.333 151.382V146.604H288.302V151.396C288.302 151.614 288.327 151.799 288.377 151.949C288.432 152.1 288.507 152.223 288.603 152.318C288.698 152.414 288.81 152.482 288.938 152.523C289.07 152.564 289.215 152.585 289.375 152.585C289.781 152.585 290.1 152.503 290.332 152.339C290.569 152.175 290.735 151.951 290.831 151.669C290.931 151.382 290.981 151.063 290.981 150.712ZM296.163 148.183V154H294.194V146.604H296.04L296.163 148.183ZM295.876 150.042H295.343C295.343 149.495 295.413 149.003 295.555 148.565C295.696 148.123 295.894 147.747 296.149 147.438C296.405 147.123 296.708 146.884 297.059 146.72C297.414 146.551 297.811 146.467 298.248 146.467C298.594 146.467 298.911 146.517 299.198 146.617C299.485 146.717 299.731 146.877 299.937 147.096C300.146 147.314 300.306 147.604 300.415 147.964C300.529 148.324 300.586 148.764 300.586 149.283V154H298.604V149.276C298.604 148.948 298.558 148.693 298.467 148.511C298.376 148.328 298.241 148.201 298.063 148.128C297.89 148.05 297.676 148.012 297.421 148.012C297.157 148.012 296.926 148.064 296.73 148.169C296.539 148.274 296.38 148.42 296.252 148.606C296.129 148.789 296.035 149.003 295.972 149.249C295.908 149.495 295.876 149.759 295.876 150.042ZM304.161 146.604V154H302.186V146.604H304.161ZM302.062 144.676C302.062 144.389 302.163 144.152 302.363 143.965C302.564 143.778 302.833 143.685 303.17 143.685C303.503 143.685 303.769 143.778 303.97 143.965C304.175 144.152 304.277 144.389 304.277 144.676C304.277 144.963 304.175 145.2 303.97 145.387C303.769 145.574 303.503 145.667 303.17 145.667C302.833 145.667 302.564 145.574 302.363 145.387C302.163 145.2 302.062 144.963 302.062 144.676ZM308.844 152.599C309.085 152.599 309.299 152.553 309.486 152.462C309.673 152.366 309.819 152.234 309.924 152.065C310.033 151.892 310.09 151.689 310.095 151.457H311.947C311.943 151.977 311.804 152.439 311.53 152.845C311.257 153.246 310.89 153.562 310.43 153.795C309.969 154.023 309.454 154.137 308.885 154.137C308.311 154.137 307.809 154.041 307.381 153.85C306.957 153.658 306.604 153.394 306.321 153.057C306.039 152.715 305.827 152.318 305.686 151.867C305.544 151.411 305.474 150.924 305.474 150.404V150.206C305.474 149.682 305.544 149.194 305.686 148.743C305.827 148.287 306.039 147.891 306.321 147.554C306.604 147.212 306.957 146.945 307.381 146.754C307.805 146.562 308.301 146.467 308.871 146.467C309.477 146.467 310.008 146.583 310.464 146.815C310.924 147.048 311.284 147.381 311.544 147.813C311.808 148.242 311.943 148.75 311.947 149.338H310.095C310.09 149.092 310.038 148.868 309.938 148.668C309.842 148.467 309.701 148.308 309.514 148.189C309.331 148.066 309.106 148.005 308.837 148.005C308.55 148.005 308.315 148.066 308.133 148.189C307.951 148.308 307.809 148.472 307.709 148.682C307.609 148.887 307.538 149.121 307.497 149.386C307.461 149.646 307.442 149.919 307.442 150.206V150.404C307.442 150.691 307.461 150.967 307.497 151.231C307.534 151.496 307.602 151.73 307.702 151.936C307.807 152.141 307.951 152.302 308.133 152.421C308.315 152.539 308.552 152.599 308.844 152.599ZM315.215 146.604V154H313.239V146.604H315.215ZM313.301 145.708L314.641 143.603H316.78L314.9 145.708H313.301ZM318.886 148.025V156.844H316.917V146.604H318.742L318.886 148.025ZM323.568 150.22V150.363C323.568 150.901 323.505 151.4 323.377 151.86C323.254 152.321 323.072 152.722 322.83 153.063C322.589 153.401 322.288 153.665 321.928 153.856C321.572 154.043 321.162 154.137 320.697 154.137C320.246 154.137 319.854 154.046 319.521 153.863C319.189 153.681 318.909 153.426 318.681 153.098C318.457 152.765 318.277 152.38 318.141 151.942C318.004 151.505 317.899 151.035 317.826 150.534V150.158C317.899 149.62 318.004 149.128 318.141 148.682C318.277 148.23 318.457 147.841 318.681 147.513C318.909 147.18 319.187 146.923 319.515 146.74C319.847 146.558 320.237 146.467 320.684 146.467C321.153 146.467 321.565 146.556 321.921 146.733C322.281 146.911 322.582 147.166 322.823 147.499C323.069 147.832 323.254 148.228 323.377 148.688C323.505 149.149 323.568 149.659 323.568 150.22ZM321.593 150.363V150.22C321.593 149.905 321.565 149.616 321.511 149.352C321.461 149.083 321.379 148.848 321.265 148.647C321.155 148.447 321.009 148.292 320.827 148.183C320.649 148.069 320.433 148.012 320.178 148.012C319.909 148.012 319.679 148.055 319.487 148.142C319.3 148.228 319.148 148.354 319.029 148.518C318.911 148.682 318.822 148.878 318.763 149.105C318.703 149.333 318.667 149.591 318.653 149.878V150.828C318.676 151.165 318.74 151.468 318.845 151.737C318.95 152.002 319.111 152.211 319.33 152.366C319.549 152.521 319.836 152.599 320.191 152.599C320.451 152.599 320.67 152.542 320.848 152.428C321.025 152.309 321.169 152.147 321.278 151.942C321.392 151.737 321.472 151.5 321.518 151.231C321.568 150.963 321.593 150.673 321.593 150.363ZM326.87 146.604V154H324.895V146.604H326.87ZM324.771 144.676C324.771 144.389 324.872 144.152 325.072 143.965C325.273 143.778 325.542 143.685 325.879 143.685C326.212 143.685 326.478 143.778 326.679 143.965C326.884 144.152 326.986 144.389 326.986 144.676C326.986 144.963 326.884 145.2 326.679 145.387C326.478 145.574 326.212 145.667 325.879 145.667C325.542 145.667 325.273 145.574 325.072 145.387C324.872 145.2 324.771 144.963 324.771 144.676ZM328.183 150.377V150.233C328.183 149.691 328.26 149.192 328.415 148.736C328.57 148.276 328.796 147.877 329.092 147.54C329.388 147.203 329.753 146.941 330.186 146.754C330.618 146.562 331.115 146.467 331.676 146.467C332.236 146.467 332.735 146.562 333.173 146.754C333.61 146.941 333.977 147.203 334.273 147.54C334.574 147.877 334.802 148.276 334.957 148.736C335.112 149.192 335.189 149.691 335.189 150.233V150.377C335.189 150.915 335.112 151.414 334.957 151.874C334.802 152.33 334.574 152.729 334.273 153.07C333.977 153.408 333.613 153.67 333.18 153.856C332.747 154.043 332.25 154.137 331.689 154.137C331.129 154.137 330.63 154.043 330.192 153.856C329.759 153.67 329.393 153.408 329.092 153.07C328.796 152.729 328.57 152.33 328.415 151.874C328.26 151.414 328.183 150.915 328.183 150.377ZM330.151 150.233V150.377C330.151 150.687 330.179 150.976 330.233 151.245C330.288 151.514 330.375 151.751 330.493 151.956C330.616 152.157 330.776 152.314 330.972 152.428C331.168 152.542 331.407 152.599 331.689 152.599C331.963 152.599 332.198 152.542 332.394 152.428C332.59 152.314 332.747 152.157 332.865 151.956C332.984 151.751 333.07 151.514 333.125 151.245C333.184 150.976 333.214 150.687 333.214 150.377V150.233C333.214 149.933 333.184 149.65 333.125 149.386C333.07 149.117 332.981 148.88 332.858 148.675C332.74 148.465 332.583 148.301 332.387 148.183C332.191 148.064 331.954 148.005 331.676 148.005C331.398 148.005 331.161 148.064 330.965 148.183C330.773 148.301 330.616 148.465 330.493 148.675C330.375 148.88 330.288 149.117 330.233 149.386C330.179 149.65 330.151 149.933 330.151 150.233Z" fill="#24292D"/>
</g>
<defs>
<filter id="filter0_d_14407_75558" x="0" y="0" width="619" height="218" filterUnits="userSpaceOnUse" color-interpolation-filters="sRGB">
<feFlood flood-opacity="0" result="BackgroundImageFix"/>
<feColorMatrix in="SourceAlpha" type="matrix" values="0 0 0 0 0 0 0 0 0 0 0 0 0 0 0 0 0 0 127 0" result="hardAlpha"/>
<feOffset dy="2"/>
<feGaussianBlur stdDeviation="6"/>
<feComposite in2="hardAlpha" operator="out"/>
<feColorMatrix type="matrix" values="0 0 0 0 0 0 0 0 0 0 0 0 0 0 0 0 0 0 0.11 0"/>
<feBlend mode="normal" in2="BackgroundImageFix" result="effect1_dropShadow_14407_75558"/>
<feBlend mode="normal" in="SourceGraphic" in2="effect1_dropShadow_14407_75558" result="shape"/>
</filter>
<clipPath id="clip0_14407_75558">
<rect width="32" height="32" fill="white" transform="translate(293.5 66)"/>
</clipPath>
</defs>
</svg>
